<svg id="Layer_1" data-name="Layer 1" xmlns="http://www.w3.org/2000/svg" width="200" height="200" viewBox="0 0 200 200"><defs><style>.cls-1{fill:#a665d2;}.cls-2{fill:#7a12cd;}.cls-3{fill:#fffeff;}.cls-4{fill:#e3ccf4;}.cls-5{fill:#d9c4eb;}.cls-6{fill:#d0bce0;}.cls-7{fill:#d7b0f8;}.cls-8{fill:#c7b5d7;}.cls-9{fill:#bb85e0;}.cls-10{fill:#bfaecd;}.cls-11{fill:#b7a7c5;}.cls-12{fill:#af9fbc;}.cls-13{fill:#a79ab2;}.cls-14{fill:#702ea5;}.cls-15{fill:#b981e5;}.cls-16{fill:#a063d0;}.cls-17{fill:#8030c6;}.cls-18{fill:#a569dc;}.cls-19{fill:#e3cff2;}.cls-20{fill:#68219f;}.cls-21{fill:#a195ab;}.cls-22{fill:#a999b5;}.cls-23{fill:#b0a2bc;}.cls-24{fill:#b9a8c5;}.cls-25{fill:#c1b0ce;}.cls-26{fill:#c9b7d7;}.cls-27{fill:#d0bde0;}.cls-28{fill:#d9c6e9;}.cls-29{fill:#cba2e7;}.cls-30{fill:#7b38b1;}.cls-31{fill:#7b41ac;}.cls-32{fill:#580897;}.cls-33{fill:none;}</style></defs><title>whimsical-logo-freelogovectors.net_</title><path class="cls-1" d="M82.38,56.54a5.6,5.6,0,0,1,1.42-.21l.52.2c-.66,0-1.3,0-1.94,0Z"/><circle class="cls-2" cx="100" cy="100" r="90.84"/><path class="cls-3" d="M113.72,56.62a5,5,0,0,1,3.84.59c1.79,1.47,3.3,3.25,5,4.78q3.41,3.49,6.86,6.91c1.27,1,2.25,2.34,3.49,3.4,1.17,1.59,2.86,2.67,4.05,4.22a31.39,31.39,0,0,1,3.12,3.09c2.49,2.16,4.53,4.79,7.08,6.88,1.51,1.76,3.2,3.36,4.84,5,1.84,1.78,3.61,3.63,5.4,5.47.25.53.48,1.06.73,1.59,0,.63,0,1.27,0,1.9a7.18,7.18,0,0,1-1.4,2.43q-19.23,19.22-38.46,38.46a8.32,8.32,0,0,1-2.17,1.24c-.68,0-1.34,0-2,0a8,8,0,0,1-2.17-1.24c-2.85-2.84-5.67-5.72-8.55-8.52-.9-.94-1.8-1.88-2.76-2.76-.46-.48-.91-1-1.39-1.42L99,128.4c-2.06-2.08-4.13-4.17-6.22-6.23-.2-.21-.41-.41-.62-.61q-5.33-5.37-10.7-10.7c-2.64-2.68-5.31-5.32-8-8a5.63,5.63,0,0,1-1.43-2.42c0-.56,0-1.12,0-1.67.38-1.82,1.85-3.11,3.15-4.33.86-1,1.87-1.89,2.82-2.84,2.24-2.07,4.19-4.41,6.4-6.51,2.66-2.46,5.09-5.14,7.67-7.68.21-.15.43-.29.64-.45,2.08-2.11,4.31-4.1,6.25-6.34l.29-.3c2.29-2.51,4.84-4.75,7.16-7.23,2.36-2.2,4.37-4.86,7.21-6.49"/><path class="cls-4" d="M79.36,58.56a6.6,6.6,0,0,1,3-2c.64,0,1.28,0,1.94,0,1.75.45,2.87,1.91,4.1,3.12,2.2,2.22,4.43,4.41,6.62,6.64-.75.55-1.48-1.34-2.3-.61A15.61,15.61,0,0,0,90.56,68c-.35.4-1,.49-1.19,1-.34.79-1.23,1-1.84,1.57-.06.26.35.31.49.49l-.12,1c-1.25-1.14-2.34-2.45-3.64-3.53-.48-.2-1.37-.4-1.83,0-9.76,9.54-19.32,19.3-29,28.91-.41.47-1.05.83-1.14,1.5a2.62,2.62,0,0,0,.83,2.55c1.82,1.78,3.59,3.61,5.42,5.39Q65,113.35,71.46,119.8c3.26,3.29,6.56,6.54,9.81,9.83a2.79,2.79,0,0,0,2.56,1.05c1.63-.64,2.57-2.22,3.87-3.32.23.35,0,.73,0,1.1-.49.13-1.13.46-.87,1.07.34.79-1,0-1.31.59-.12.4.3.61.42.95-.79.05-1.89-.52-2.32.37-.46.16-.83-.28-1.24-.42-1.26.43-.86-1.2-1.76-1.26-.91-.41-1.12-1.7-2.16-1.94-.78-.18-.55-1.26-1.23-1.58a3.2,3.2,0,0,1-1.27-1.36c-.21-.58-1,.26-1.11-.48-.28-1.17-1.36-1.74-2-2.62-.41-.42-1.25-.33-1.4-1a1.6,1.6,0,0,0-1-1.09c-.51-.66-1-1.64-2-1.58-.7.11-.65-.81-.59-1.27-1.09-.27-1.27-1.55-2.21-2-.44.06-1-.1-1.27.36,0,.25.1.54-.1.75-.2-.1-.38-.23-.58-.33-1.25,1.3-2.56,2.55-3.81,3.85-.07,1.25,1.35,1.82,2,2.77.14.47.57.3.94.26a18.07,18.07,0,0,0,1,1.85c.85.49,1.35,1.39,2.23,1.82a7.5,7.5,0,0,0,2.65,2.8,5.11,5.11,0,0,1,.94.86c.47.17,1.25,0,.83,1A7,7,0,0,0,71.6,132c1-.45.86.38,1,.84.33.54,1.47-.09,1.07,1.15.63.85,1.67,1.29,2.2,2.22.87.47,1.21,1.49,2,2a7.07,7.07,0,0,1,2,2,15.53,15.53,0,0,1,1.59,1.45,22.09,22.09,0,0,1,3.12.36c.82-.21,1-1.26,1.74-1.61.9-.32,1.24-1.34,2-1.81.41-.23.23-.79.53-1.12l1.06.17c-.67,1.1-1.85,1.73-2.59,2.76a7,7,0,0,1-3.11,2.15l-1.84,0a10.67,10.67,0,0,1-2.4-1.29c-1.13-1.27-2.48-2.34-3.55-3.67a1.7,1.7,0,0,0-.5-.38,51.26,51.26,0,0,0-3.83-3.83c-1.12-1.34-2.56-2.38-3.66-3.74-1.17-1.53-2.85-2.54-4-4.05-.33-.37-.75-.65-1.08-1-2.22-2.15-4.21-4.55-6.56-6.54-1.25-1.54-2.84-2.78-4.2-4.22-1.27-1.69-3-2.92-4.44-4.45-.6-.49-1-1.18-1.65-1.63a2,2,0,0,0-.52-.63c-1.52-1.25-2.63-2.9-4.16-4.14a4.76,4.76,0,0,1-1.48-2.35c0-.71.07-1.41,0-2.12a6.71,6.71,0,0,1,1.13-2.19C54.18,83.8,66.75,71.16,79.36,58.56Z"/><path class="cls-5" d="M92.74,65.68c.82-.73,1.55,1.16,2.3.61.47.44.91.91,1.36,1.38l-.05.22-.17,0a7.16,7.16,0,0,0-1.24-1c-.76,0-1.13.77-1.53,1.28a5.18,5.18,0,0,1-1.79,1.66c-.81.86-1.58,1.77-2.45,2.57a1.89,1.89,0,0,1-.06.85c-.41-.4-.82-.8-1.21-1.22L88,71c-.14-.18-.55-.23-.49-.49.61-.52,1.5-.78,1.84-1.57.2-.54.84-.63,1.19-1a15.61,15.61,0,0,1,2.18-2.27Z"/><path class="cls-6" d="M93.41,68.17c.4-.51.77-1.28,1.53-1.28a7.16,7.16,0,0,1,1.24,1c-1.06.08-1.46,1.11-2.28,1.61A13.93,13.93,0,0,0,92,71.38c-.7.85-1.83,1.44-2,2.61-.28-.25-.57-.48-.83-.74a1.89,1.89,0,0,0,.06-.85c.87-.8,1.64-1.71,2.45-2.57a5.18,5.18,0,0,0,1.79-1.66Z"/><path class="cls-7" d="M96.4,67.67c1,.85,1.78,2,2.95,2.67l-.29.3c-.37-.32-.71-.66-1.07-1a1.9,1.9,0,0,1-.21-.19c-.21-.19-.41-.4-.6-.6l-.39-.4-.44-.57.05-.22Z"/><path class="cls-8" d="M93.9,69.47c.82-.5,1.22-1.53,2.28-1.61l.17,0,.44.57c-.32.1-.65.2-1,.33-1.45,1.76-3.24,3.21-4.74,4.92a4.29,4.29,0,0,0-.36.92,5.6,5.6,0,0,0-.76-.51l0-.13c.2-1.17,1.33-1.76,2-2.61a13.93,13.93,0,0,1,1.93-1.91Z"/><path class="cls-9" d="M82.43,68.51c.46-.41,1.35-.21,1.83,0-.62,0-1.22,0-1.83,0Z"/><path class="cls-10" d="M95.83,68.79c.31-.13.64-.23,1-.33l.39.4c-.47.19-1,.32-1.22.86-1.41,1.81-3.34,3.09-4.75,4.89a5.61,5.61,0,0,0,.06.59c-.18-.18-.37-.37-.54-.57a4.29,4.29,0,0,1,.36-.92c1.5-1.71,3.29-3.16,4.74-4.92Z"/><path class="cls-11" d="M96,69.72c.21-.54.75-.67,1.22-.86.19.2.39.41.6.6-2,.81-3,3-4.78,4.15-.52.62-1.41,1.08-1.34,2l-.39-.4a5.61,5.61,0,0,1-.06-.59c1.41-1.8,3.34-3.08,4.75-4.89Z"/><path class="cls-12" d="M93,73.61c1.79-1.15,2.77-3.34,4.78-4.15a1.9,1.9,0,0,0,.21.19c-1,1.13-2.06,2.16-3.1,3.23-.92.63-1.42,1.67-2.3,2.35-.34.2-.24.64-.3,1q-.33-.28-.63-.6c-.07-.91.82-1.37,1.34-2Z"/><path class="cls-13" d="M94.89,72.88c1-1.07,2.12-2.1,3.1-3.23.36.33.7.67,1.07,1-1.94,2.24-4.17,4.23-6.25,6.34a4.6,4.6,0,0,0-.52-.78c.06-.33,0-.77.3-1,.88-.68,1.38-1.72,2.3-2.35Z"/><path class="cls-14" d="M90,74.12a5.6,5.6,0,0,1,.76.51c.17.2.36.39.54.57l.39.4q.3.32.63.6a4.6,4.6,0,0,1,.52.78c-.21.16-.43.3-.64.45,0-.2.06-.41.08-.61-.71-.94-2-1.51-2.28-2.7Z"/><path class="cls-15" d="M40.2,98.77l.21-.23c.05.71,0,1.41,0,2.12,0-.11-.13-.33-.17-.44,0-.36,0-1.08,0-1.45Z"/><path class="cls-16" d="M158.17,98.55a2.65,2.65,0,0,1,0,1.9c0-.63,0-1.27,0-1.9Z"/><path class="cls-17" d="M40.22,100.22a1,1,0,0,1,0-1.45c0,.37,0,1.09,0,1.45Z"/><path class="cls-18" d="M72,98.72l.15.07c0,.55,0,1.11,0,1.67a4.25,4.25,0,0,1-.1-1.74Z"/><path class="cls-19" d="M64.37,115.17c.22-.46.83-.3,1.27-.36.94.47,1.12,1.75,2.21,2-.06.46-.11,1.38.59,1.27,1-.06,1.47.92,2,1.58a1.6,1.6,0,0,1,1,1.09c.15.68,1,.59,1.4,1,.68.88,1.76,1.45,2,2.62.06.74.9-.1,1.11.48a3.2,3.2,0,0,0,1.27,1.36c.68.32.45,1.4,1.23,1.58,1,.24,1.25,1.53,2.16,1.94.9.06.5,1.69,1.76,1.26.41.14.78.58,1.24.42.43-.89,1.53-.32,2.32-.37-.12-.34-.54-.55-.42-.95.28-.56,1.65.2,1.31-.59-.26-.61.38-.94.87-1.07-.11.73.7.91,1.06,1.39a9.76,9.76,0,0,0,3.14,2.92c.44.29.46.87.69,1.31.94-.08,1.49-.86,2.19-1.38l.29.2c-1.81,1.47-3.26,3.35-5,4.82l-1.06-.17c-.3.33-.12.89-.53,1.12-.8.47-1.14,1.49-2,1.81-.74.35-.92,1.4-1.74,1.61a22.09,22.09,0,0,0-3.12-.36,15.53,15.53,0,0,0-1.59-1.45,7.07,7.07,0,0,0-2-2c-.81-.53-1.15-1.55-2-2-.53-.93-1.57-1.37-2.2-2.22.4-1.24-.74-.61-1.07-1.15-.16-.46,0-1.29-1-.84a7,7,0,0,1-1.19-1.18c.42-1-.36-.86-.83-1a5.11,5.11,0,0,0-.94-.86,7.5,7.5,0,0,1-2.65-2.8c-.88-.43-1.38-1.33-2.23-1.82a18.07,18.07,0,0,1-1-1.85c-.37,0-.8.21-.94-.26-.62-.95-2-1.52-2-2.77,1.25-1.3,2.56-2.55,3.81-3.85.2.1.38.23.58.33.2-.21.1-.5.1-.75Z"/><path class="cls-20" d="M92.17,121.56c.21.2.42.4.62.61l-.27.37q-.42.39-.81.81l-.19.19c-.21.2-.42.4-.62.61l-.38.39c-.2.2-.4.39-.59.6s-.56.53-.83.81l-.18.1a1.75,1.75,0,0,1,.43-1c1-1,2-1.91,2.9-2.9,0-.21,0-.41-.08-.62Z"/><path class="cls-21" d="M92.79,122.17c2.09,2.06,4.16,4.15,6.22,6.23l-.6.53c-.76-.54-1.35-1.27-2.06-1.86-1.26-1-2-2.38-3.29-3.36l-.54-1.17.27-.37Z"/><path class="cls-22" d="M91.71,123.35q.39-.42.81-.81l.54,1.17c1.24,1,2,2.39,3.29,3.36.71.59,1.3,1.32,2.06,1.86l-.41.42a5.68,5.68,0,0,1-1.7-1.42c-1.68-1.38-2.93-3.19-4.59-4.58Z"/><path class="cls-23" d="M91.52,123.54l.19-.19c1.66,1.39,2.91,3.2,4.59,4.58a5.68,5.68,0,0,0,1.7,1.42l-.57.56c-1.72-1.74-3.61-3.31-5.2-5.18a2,2,0,0,1-.71-1.19Z"/><path class="cls-24" d="M90.9,124.15c.2-.21.41-.41.62-.61a2,2,0,0,0,.71,1.19c1.59,1.87,3.48,3.44,5.2,5.18l-.29.36-.14.11c-2.15-1.55-3.75-3.74-5.7-5.52a4.47,4.47,0,0,1-.4-.71Z"/><path class="cls-25" d="M90.52,124.54l.38-.39a4.47,4.47,0,0,0,.4.71c2,1.78,3.55,4,5.7,5.52a5.79,5.79,0,0,1-.61.5c-1.92-1.79-3.79-3.63-5.62-5.5-.26-.21-.19-.55-.25-.84Z"/><path class="cls-26" d="M89.93,125.14c.19-.21.39-.4.59-.6.06.29,0,.63.25.84,1.83,1.87,3.7,3.71,5.62,5.5-.48.28-1.07.11-1.6.16-1.33-2-3.43-3.39-5-5.23.08-.22.23-.43.15-.67Z"/><path class="cls-27" d="M89.1,126c.27-.28.54-.55.83-.81.08.24-.07.45-.15.67,1.58,1.84,3.68,3.2,5,5.23.53,0,1.12.12,1.6-.16a5.79,5.79,0,0,0,.61-.5l.14-.11.08.45c-.4.4-.8.81-1.2,1.2l-.08-.43c-.49.26-.87.7-1.35,1-1.07-1.35-2.6-2.26-3.66-3.62-.51-1-1.91-1.6-1.83-2.9Z"/><path class="cls-28" d="M88.92,126.05l.18-.1c-.08,1.3,1.32,1.86,1.83,2.9,1.06,1.36,2.59,2.27,3.66,3.62.48-.28.86-.72,1.35-1l.08.43a13.09,13.09,0,0,1-1,1l-.29-.2c-.7.52-1.25,1.3-2.19,1.38-.23-.44-.25-1-.69-1.31a9.76,9.76,0,0,1-3.14-2.92c-.36-.48-1.17-.66-1.06-1.39,0-.37.27-.75,0-1.1.41-.44.82-.87,1.22-1.31Z"/><path class="cls-29" d="M98.41,128.93l.6-.53.25.24c-.65.72-1.34,1.41-2,2.08l-.08-.45.29-.36.57-.56.41-.42Z"/><path class="cls-30" d="M82.45,142.59l1.84,0a2.31,2.31,0,0,1-1.84,0Z"/><path class="cls-31" d="M114.13,142.58c.68,0,1.34,0,2,0l-.18.24h-1.65l-.19-.24Z"/><path class="cls-32" d="M114.32,142.82H116a1.52,1.52,0,0,1-1.65,0Z"/><rect class="cls-33" width="200" height="200"/></svg>